<svg width="64" height="64" viewBox="0 0 64 64" fill="none" xmlns="http://www.w3.org/2000/svg">
<g clip-path="url(#clip0_6_85)">
<path d="M19.816 8L8 21.504V56H56V21.504L44.184 8H19.816ZM18.908 4H45.092C45.3766 3.99979 45.6581 4.06034 45.9174 4.17761C46.1768 4.29488 46.4081 4.46616 46.596 4.68L59.504 19.436C59.8232 19.8002 59.9994 20.2678 60 20.752V58C60 58.5304 59.7893 59.0391 59.4142 59.4142C59.0391 59.7893 58.5304 60 58 60H6C5.46957 60 4.96086 59.7893 4.58579 59.4142C4.21071 59.0391 4 58.5304 4 58V20.752C3.99959 20.2664 4.17589 19.7972 4.496 19.432L17.4 4.688C17.5876 4.47219 17.8192 4.29911 18.0794 4.18043C18.3395 4.06174 18.6221 4.00022 18.908 4Z" fill="black"/>
<path d="M4 20H60V24H4V20Z" fill="black"/>
<path d="M28 20.492V40H36V20.492L32.88 8H31.12L28 20.492ZM28 4H36L40 20V42C40 42.5304 39.7893 43.0391 39.4142 43.4142C39.0391 43.7893 38.5304 44 38 44H26C25.4696 44 24.9609 43.7893 24.5858 43.4142C24.2107 43.0391 24 42.5304 24 42V20L28 4Z" fill="black"/>
</g>
<defs>
<clipPath id="clip0_6_85">
<rect width="64" height="64" fill="white"/>
</clipPath>
</defs>
</svg>
