<svg width="64" height="64" viewBox="0 0 64 64" fill="none" xmlns="http://www.w3.org/2000/svg">
<path d="M14 12C14 6.486 18.486 2 24 2C29.514 2 34 6.486 34 12C34 15.254 32.414 18.122 30 19.948V12C30 8.692 27.308 6 24 6C20.692 6 18 8.692 18 12V19.948C15.586 18.122 14 15.254 14 12ZM48 26C45.792 26 44 27.792 44 30V28C44 25.792 42.208 24 40 24C37.792 24 36 25.792 36 28V26C36 23.792 34.208 22 32 22C29.792 22 28 23.792 28 26V12C28 9.792 26.208 8 24 8C21.792 8 20 9.792 20 12V32.554C19.41 32.212 18.732 32 18 32C15.792 32 14 33.792 14 36V42C14 42.908 14.31 43.79 14.876 44.498L22 56H46L50.586 49.414C51.364 48.636 52 47.1 52 46V30C52 27.792 50.208 26 48 26ZM22 58V60C22 61.104 22.894 62 24 62H44C45.106 62 46 61.104 46 60V58H22Z" fill="#111918"/>
</svg>
