<svg width="64" height="64" viewBox="0 0 64 64" fill="none" xmlns="http://www.w3.org/2000/svg">
<path d="M48 30V34H34V48H30V34H16V30H30V16H34V30H48ZM48.97 48.97C39.598 58.342 24.402 58.342 15.028 48.97C5.65599 39.598 5.65599 24.402 15.028 15.028C24.402 5.65602 39.596 5.65602 48.97 15.028C58.344 24.402 58.344 39.598 48.97 48.97ZM46.142 17.858C38.458 10.174 25.808 9.90802 17.858 17.858C10.06 25.656 10.06 38.344 17.858 46.142C25.808 54.092 38.46 53.824 46.142 46.142C53.94 38.344 53.94 25.656 46.142 17.858Z" fill="#0B1719"/>
</svg>
