<svg width="82" height="81" viewBox="0 0 82 81" fill="none" xmlns="http://www.w3.org/2000/svg">
<g clip-path="url(#clip0_4_6)">
<path d="M66.9596 7.8628L64.5359 4.05195C65.1037 3.69629 65.4829 3.07535 65.4829 2.36623C65.4829 1.26186 64.5718 0.366669 63.4454 0.366669H17.9532C15.8303 0.366669 13.896 1.21565 12.5069 2.58092C11.1155 3.94068 10.2157 5.84343 10.2157 7.92331V74.2491C10.2157 77.8848 13.2206 80.8333 16.9256 80.8333H66.1316C69.253 80.8333 71.7844 78.3514 71.7844 75.2895V13.3273C71.7844 10.5416 69.6838 8.26246 66.9596 7.8628ZM24.3018 28.7092L28.7855 33.9183C29.1379 34.3291 29.7282 34.4083 30.1028 34.0968L30.2868 33.9459C30.6616 33.6343 30.684 33.0497 30.3294 32.639L25.821 27.4002C24.912 26.3444 25.2936 25.4877 25.9197 24.969C26.5457 24.4504 27.4703 24.2247 28.3792 25.2807L32.8876 30.5195C33.24 30.9302 33.8324 31.0083 34.2071 30.6968L34.3889 30.5459C34.7637 30.2354 34.7861 29.6507 34.4315 29.2401L29.9478 24.0298C28.3208 22.1393 30.8543 20.1508 32.4432 21.9984C34.3484 24.2115 36.6779 26.9189 36.6779 26.9189C39.6153 30.3081 39.6267 31.8098 39.3057 33.8898C39.0477 35.5657 38.619 36.7569 40.4412 38.8753L41.0202 39.547L38.4643 42.5166L37.4565 41.3484C35.6344 39.2299 34.3665 39.4445 32.6386 39.4148C30.4954 39.3774 28.9896 39.1109 26.0768 35.7033C26.0768 35.7033 23.7475 32.9957 21.8423 30.7826C20.2535 28.936 22.6748 26.8176 24.3018 28.7092ZM32.8046 70.8105H31.3572V66.5153L29.9209 69.497H28.8863L27.4074 66.4988V70.8107H25.9621V63.2407H27.3489L29.4023 67.5326L31.4151 63.2407H32.8043V70.8105H32.8046ZM40.0575 64.5476H36.4557V66.3468H39.528V67.6439H36.4557V69.5036H40.0575V70.8105H35.0105V63.2407H40.0575V64.5476ZM47.777 70.8105H46.5002L43.336 66.0825V70.8105H41.8908V63.2407H43.1677L46.3318 67.9587V63.2407H47.777V70.8105ZM43.1139 47.9215L45.67 44.9509L53.1989 53.701L50.2165 56.1752L43.1139 47.9215ZM55.5103 68.2064C55.5103 68.6005 55.4363 68.9661 55.2949 69.293C55.1512 69.6211 54.9493 69.9053 54.6958 70.1365C54.4421 70.3665 54.1392 70.5482 53.7958 70.6782C53.4547 70.8058 53.0822 70.8709 52.6895 70.8709C52.299 70.8709 51.9265 70.8058 51.5831 70.6782C51.2397 70.5482 50.9391 70.3654 50.6901 70.1354C50.4387 69.904 50.2391 69.6211 50.0977 69.293C49.954 68.9661 49.8823 68.6005 49.8823 68.2064V63.2407H51.3275V68.1558C51.3275 68.5994 51.4508 68.9496 51.6956 69.1951C51.9424 69.4438 52.2676 69.5639 52.6896 69.5639C53.1117 69.5639 53.4392 69.4429 53.6905 69.194C53.9419 68.945 54.063 68.6049 54.063 68.1556V63.2407H55.5105L55.5103 68.2064ZM58.7911 28.8765C57.7632 31.3352 55.9163 35.8462 53.8517 38.2476C49.0495 44.1581 48.9843 38.8036 45.0258 43.2673L33.9176 56.1752L30.9488 53.7132L30.8993 53.7418C30.8993 53.7418 30.9127 53.7252 30.9329 53.7021C31.4018 53.1581 38.0084 45.4816 43.6929 38.8742C49.3166 32.3394 54.0111 26.8825 55.0007 25.7341C57.0296 23.3745 60.3957 25.0492 58.7911 28.8765ZM14.4458 8.01257V7.92331C14.4458 7.04792 14.8273 6.17253 15.4914 5.52188C16.1535 4.87013 17.0241 4.51667 17.9532 4.51667H59.8457L62.0697 8.01257H14.4458Z" fill="black"/>
</g>
<defs>
<clipPath id="clip0_4_6">
<rect width="82" height="80.4667" fill="white" transform="translate(0 0.366669)"/>
</clipPath>
</defs>
</svg>
