<svg width="82" height="81" viewBox="0 0 82 81" fill="none" xmlns="http://www.w3.org/2000/svg">
<g clip-path="url(#clip0_4_30)">
<path d="M32.3589 19.9371H30.2052C29.1346 19.9371 28.267 19.0857 28.267 18.0352C28.267 16.9847 29.1346 16.1333 30.2052 16.1333H32.3589C33.4294 16.1333 34.2971 16.9847 34.2971 18.0352C34.2971 19.0857 33.4294 19.9371 32.3589 19.9371ZM39.7446 19.9371H41.8984C42.9689 19.9371 43.8365 19.0857 43.8365 18.0352C43.8365 16.9847 42.9689 16.1333 41.8984 16.1333H39.7446C38.6741 16.1333 37.8064 16.9847 37.8064 18.0352C37.8064 19.0857 38.6741 19.9371 39.7446 19.9371ZM20.7908 22.3845C21.3516 22.4753 21.8859 22.3202 22.3207 21.9589C22.755 21.5975 22.9646 21.0669 22.9646 20.5081V17.3484C22.9646 17.267 23.007 17.1869 22.9969 17.1081C23.007 17.0295 23.0361 16.9494 23.0361 16.868C23.0361 9.86639 28.8527 4.17032 35.9876 4.17032C36.3341 4.17032 36.6838 4.18363 37.0236 4.21005C35.2272 6.94629 32.6195 8.92388 29.6801 9.73051C28.6492 10.0133 28.0488 11.0627 28.3372 12.0743C28.6255 13.0861 29.6963 13.6781 30.7263 13.3936C34.9806 12.2263 38.6806 9.23748 40.9708 5.14474C45.6455 7.06083 48.9395 11.5942 48.9395 16.868C48.9395 22.3048 45.4549 27.0338 40.3254 28.8086C39.7155 28.3033 38.928 27.9673 38.0694 27.9673H33.9305C31.9986 27.9673 30.427 29.5583 30.427 31.4541C30.427 33.3499 31.9986 34.941 33.9305 34.941H38.0694C39.6361 34.941 40.9661 33.9085 41.4123 32.5135C46.4074 30.8565 50.1864 27.0252 51.8543 22.2731C54.1054 21.7368 55.4826 20.3596 55.4826 18.6728V14.4574C55.4826 12.7072 53.9969 11.2996 51.5972 10.8089C49.1308 4.69905 43.071 0.366669 35.9775 0.366669C28.8749 0.366669 22.7837 4.71068 20.3233 10.8328C17.9891 11.3442 16.5042 12.7349 16.5042 14.4572V18.673C16.504 20.5052 18.1949 21.9618 20.7908 22.3845ZM43.9533 43.4775C46.6081 43.6804 49.2315 44.747 51.1161 46.4166C51.9105 47.1201 53.1361 47.0589 53.8537 46.2795C54.5708 45.4999 54.5083 44.2732 53.7139 43.5692C50.9186 41.0927 46.9256 39.5904 43.0326 39.5904H42.7664C41.9386 39.5904 41.2021 40.1301 40.9334 40.8985C40.4768 42.203 38.6534 43.5354 36.0518 43.5354C33.4503 43.5354 31.6271 42.1969 31.1708 40.8928C30.9018 40.1242 30.1653 39.5904 29.3375 39.5904H29.0711C22.4811 39.5904 16.3212 43.6421 15.0473 48.7843L9.35558 71.7687C9.32995 71.8626 9.31122 71.9657 9.30045 72.0646C9.27396 72.3008 9.29356 72.5373 9.353 72.7577C9.40554 72.9541 9.48932 73.1396 9.59893 73.3055C9.82763 73.6533 10.1711 73.9295 10.5928 74.0726C10.6619 74.0958 10.7328 74.1161 10.8053 74.132C10.9473 74.1631 11.089 74.2133 11.2289 74.2133C11.2483 74.2133 11.2675 74.2478 11.2866 74.2478H22.9209C23.9914 74.2478 24.859 73.3964 24.859 72.3459C24.859 71.2954 23.9914 70.4439 22.9209 70.4439H13.6936L18.8136 49.7421C19.6001 46.5673 23.7571 43.8355 28.1505 43.4955C29.6474 45.8306 32.688 47.36 36.0513 47.36C39.4151 47.3602 42.4561 45.8129 43.9533 43.4775ZM72.7112 62.7012C72.7112 64.0198 72.0929 65.2738 71.0474 66.0951C70.9957 66.1409 70.9412 66.1842 70.8842 66.2248L66.0982 69.6227L67.9347 75.1332C68.3017 76.2412 68.2076 77.4198 67.6702 78.4549C67.1332 79.4902 66.217 80.2583 65.091 80.6174C64.6368 80.7623 64.1714 80.8333 63.711 80.8333C62.704 80.8333 61.7188 80.4942 60.9125 79.8458L56.3384 76.5715L51.5619 79.9906C50.6048 80.6744 49.4361 80.951 48.2678 80.7708C47.1002 80.5903 46.0738 79.9747 45.3782 79.0371C44.5898 77.9745 44.3368 76.6096 44.6846 75.3461C44.6992 75.2748 44.7184 75.2036 44.7421 75.133L46.5786 69.6223L41.7928 66.2246C40.8328 65.5422 40.2018 64.5346 40.0151 63.3867C39.8286 62.2392 40.1086 61.0894 40.8031 60.1484C41.6938 58.9419 43.1177 58.2728 44.6359 58.3572L50.3079 58.3679L52.122 52.8528C52.868 50.574 55.3659 49.3139 57.6921 50.0462C59.0471 50.4728 60.1168 51.5212 60.5539 52.8515L60.5546 52.854L60.555 52.8549L60.5561 52.8587C60.5584 52.8652 60.5606 52.872 60.5625 52.8786L62.3683 58.3682L68.2799 58.357C70.7252 58.357 72.7112 60.3058 72.7112 62.7012ZM68.8349 62.7079C68.8349 62.41 68.5881 62.1745 68.2842 62.1745L60.9624 62.2022C60.9612 62.2022 60.9596 62.2022 60.9586 62.2022C60.1176 62.2022 59.3725 61.6566 59.1143 60.8711L56.869 54.0322C56.8671 54.0267 56.8651 54.0218 56.8636 54.0163C56.8354 53.9333 56.7469 53.7469 56.5083 53.6717C56.2167 53.5806 55.9053 53.7412 55.8123 54.026L53.5631 60.8707C53.3049 61.6562 52.5596 62.2022 51.7189 62.2022C51.7176 62.2022 51.7163 62.2022 51.715 62.2022L44.5711 62.1748C44.5261 62.1748 44.4811 62.1593 44.4363 62.156C44.241 62.1435 44.0566 62.2259 43.9431 62.38C43.8309 62.5321 43.8273 62.6853 43.8439 62.7876C43.8604 62.8893 43.9126 63.034 44.0667 63.1437L49.9971 67.3541C50.6798 67.8389 50.9651 68.7005 50.703 69.4864L48.4778 76.163C48.4655 76.2133 48.4513 76.2638 48.4347 76.3139C48.4087 76.393 48.3641 76.5984 48.5127 76.7987C48.6232 76.9475 48.7685 76.9976 48.8708 77.0136C48.9736 77.0286 49.1273 77.0257 49.2794 76.9168L55.1966 72.6812C55.5369 72.4376 55.9376 72.3159 56.3388 72.3159C56.74 72.3159 57.1408 72.4376 57.4811 72.6812L63.2473 76.8091C63.2861 76.8365 63.3236 76.8657 63.3597 76.8957C63.4155 76.9426 63.6188 77.087 63.8932 77.0001C64.0741 76.9424 64.1686 76.8209 64.2164 76.7292C64.264 76.6373 64.3086 76.4906 64.2496 76.3127L61.9746 69.4864C61.7127 68.7005 61.9981 67.8389 62.6807 67.3541L68.4862 63.2324C68.5246 63.2003 68.5644 63.1693 68.6057 63.1399C68.6744 63.0909 68.8349 62.9565 68.8349 62.7079Z" fill="black"/>
</g>
<defs>
<clipPath id="clip0_4_30">
<rect width="82" height="80.4667" fill="white" transform="translate(0 0.366669)"/>
</clipPath>
</defs>
</svg>
