<svg width="82" height="81" viewBox="0 0 82 81" fill="none" xmlns="http://www.w3.org/2000/svg">
<path d="M78.5833 40.6C78.5833 60.9685 61.7566 77.4806 41 77.4806C20.2433 77.4806 3.41666 60.9685 3.41666 40.6C3.41666 20.2314 20.2433 3.71945 41 3.71945C61.7566 3.71945 78.5833 20.2314 78.5833 40.6ZM10.2733 40.6C10.2733 57.2526 24.0301 70.7522 41 70.7522C57.9699 70.7522 71.7268 57.2526 71.7268 40.6C71.7268 23.9475 57.9699 10.4479 41 10.4479C24.0301 10.4479 10.2733 23.9475 10.2733 40.6Z" fill="#0F0F0F"/>
<path d="M41 17.1306C39.113 17.1306 37.5833 18.6316 37.5833 20.4833V42.1647C37.5833 42.1647 37.5833 43.0388 38.0162 43.6963C38.3059 44.2539 38.7576 44.7383 39.3511 45.0746L55.1354 54.0175C56.7696 54.9432 58.8592 54.3937 59.8026 52.79C60.7459 51.1864 60.1863 49.1358 58.5521 48.2101L44.4166 40.2017V20.4833C44.4166 18.6317 42.887 17.1306 41 17.1306Z" fill="#0F0F0F"/>
</svg>
